# AST/ASF file generated using VICON BodyLanguage
# -----------------------------------------------
:version 1.10
:name VICON
:units
  mass 1.0
  length 0.45
  angle deg
:documentation
   .ast/.asf automatically generated from VICON data using
   VICON BodyBuilder and BodyLanguage model FoxedUp or BRILLIANT.MOD
:root
   order TX TY TZ RX RY RZ
   axis XYZ
   position 0 0 0  
   orientation 0 0 0 
:bonedata
  begin
     id 1 
     name lhipjoint
     direction 0.611804 -0.747784 0.257906 
     length 2.29243 
     axis 0 0 0  XYZ
  end
  begin
     id 2 
     name lfemur
     direction 0.34202 -0.939693 0  
     length 7.31159  
     axis 0 0 20  XYZ
    dof rx ry rz
    limits (-160.0 20.0)
           (-70.0 70.0)
           (-60.0 70.0)
  end
  begin
     id 3 
     name ltibia
     direction 0.34202 -0.939693 0   
     length 7.33391   
     axis 0 0 20   XYZ
    dof rx
    limits (-10.0 170.0)
  end
  begin
     id 4 
     name lfoot
     direction 0.122263 -0.335914 0.933924   
     length 1.76083   
     axis -90 7.62852e-016 20   XYZ
    dof rx rz
    limits (-45.0 90.0)
           (-70.0 20.0)
  end
  begin
     id 5 
     name ltoes
     direction 1.53533e-011 -4.2177e-011 1   
     length 0.879206   
     axis -90 7.62852e-016 20   XYZ
    dof rx
    limits (-90.0 20.0)
  end
  begin
     id 6 
     name rhipjoint
     direction -0.646469 -0.721248 0.248754   
     length 2.37677  
     axis 0 0 0  XYZ 
  end
  begin
     id 7 
     name rfemur
     direction -0.34202 -0.939693 0   
     length 7.18623   
     axis 0 0 -20   XYZ
    dof rx ry rz
    limits (-160.0 20.0)
           (-70.0 70.0)
           (-70.0 60.0)
  end
  begin
     id 8 
     name rtibia
     direction -0.34202 -0.939693 0   
     length 7.36567   
     axis 0 0 -20   XYZ
    dof rx
    limits (-10.0 170.0)
 end
 begin
     id 9 
     name rfoot
     direction -0.126681 -0.348054 0.928876   
     length 1.71902  
     axis -90 -7.62852e-016 -20   XYZ
    dof rx rz
    limits (-45.0 90.0)
           (-20.0 70.0)
  end
  begin
     id 10 
     name rtoes
     direction -1.53551e-011 -4.21898e-011 1   
     length 0.857792   
     axis -90 -7.62852e-016 -20   XYZ
    dof rx
    limits (-90.0 20.0)
  end
  begin
     id 11 
     name lowerback
     direction 0.0106509 0.999778 0.0181844   
     length 2.07668   
     axis 0 0 0   XYZ
    dof rx ry rz
    limits (-20.0 45.0)
           (-30.0 30.0)
           (-30.0 30.0)
  end
  begin
     id 12 
     name upperback
     direction -0.00456018 0.999989 -0.000590935   
     length 2.08011   
     axis 0 0 0   XYZ
    dof rx ry rz
    limits (-20.0 45.0)
           (-30.0 30.0)
           (-30.0 30.0)
  end
  begin
     id 13 
     name thorax
     direction -0.00910382 0.999916 -0.00923765   
     length 2.07397   
     axis 0 0 0   XYZ
    dof rx ry rz
    limits (-20.0 45.0)
           (-30.0 30.0)
           (-30.0 30.0)
  end
  begin
     id 14 
     name lowerneck
     direction 0.00171967 0.99778 0.0665733   
     length 1.67556   
     axis 0 0 0   XYZ
    dof rx ry rz
    limits (-20.0 45.0)
           (-30.0 30.0)
           (-30.0 30.0)
  end
  begin
     id 15 
     name upperneck
     direction -0.0143166 0.991302 -0.130828   
     length 1.68462   
     axis 0 0 0   XYZ
    dof rx ry rz
    limits (-20.0 45.0)
           (-30.0 30.0)
           (-30.0 30.0)
  end
  begin
     id 16
     name head
     direction -0.00606378 0.998665 -0.0512995  
     length 1.69269  
     axis 0 0 0   XYZ
    dof rx ry rz
    limits (-20.0 45.0)
           (-30.0 30.0)
           (-30.0 30.0)
  end
  begin
     id 17 
     name lclavicle
     direction 0.9638 0.179341 0.197297  
     length 4.12888  
     axis 0 0 0   XYZ
    dof ry rz
    limits (-20.0 10.0)
           (0.0 20.0)
  end
  begin
     id 18 
     name lhumerus
     direction 1 -4.48972e-011 -2.47351e-027   
     length 5.01834   
     axis -180 -30 -90   XYZ
    dof rx ry rz
    limits (-60.0 90.0)
           (-90.0 90.0)
           (-90.0 90.0)
  end
  begin
     id 19
     name lradius
     direction 1 -4.48965e-011 1.51591e-026   
     length 3.4869   
     axis -180 -30 -90   XYZ
    dof rx
    limits (-10.0 170.0)
  end
  begin
     id 20
     name lwrist
     direction 1 -4.48957e-011 2.70032e-026   
     length 1.74345   
     axis -1.81515e-014 90 90   XYZ
    dof ry
    limits (-180.0 0.0)
 end
  begin
     id 21 
     name lhand
     direction 1 -4.48951e-011 5.40064e-026   
     length 0.76799   
     axis -3.44607e-014 90 90   XYZ
    dof rx rz
    limits (-90.0 90.0)
           (-45.0 45.0)
  end
  begin
     id 22 
     name lfingers
     direction 1 -4.48971e-011 1.08013e-025   
     length 0.619174   
     axis -6.89214e-014 90 90   XYZ
    dof rx
    limits (0.0 90.0)
  end
  begin
     id 23
     name lthumb
     direction 0.707107 -6.34931e-011 0.707107   
     length 0.889013   
     axis -90 45 2.85299e-015   XYZ
    dof rx rz
    limits (-45.0 45.0)
           (-45.0 45.0)
  end
  begin
     id 24 
     name rclavicle
     direction -0.961409 0.252588 0.109054   
     length 4.04305  
     axis 0 0 0   XYZ 
    dof ry rz
    limits (-10.0 20.0)
           (-20.0 0.0)
  end
  begin
     id 25 
     name rhumerus
     direction -1 -4.4897e-011 1.33872e-017  
     length 4.70164   
     axis -180 30 90   XYZ
    dof rx ry rz
    limits (-90.0 60.0)
           (-90.0 90.0)
           (-90.0 90.0)
  end
  begin
     id 26 
     name rradius
     direction -1 -4.48954e-011 1.83844e-026   
     length 3.49911   
     axis -180 30 90   XYZ
    dof rx
    limits (-10.0 170.0)
  end
  begin
     id 27 
     name rwrist
     direction -1 -4.49008e-011 2.70032e-026   
     length 1.74955   
     axis -1.81515e-014 -90 -90   XYZ
    dof ry
    limits (-180.0 0.0)
  end
  begin
     id 28
     name rhand
     direction -1 -4.48916e-011 5.40064e-026   
     length 0.739335   
     axis -3.44607e-014 -90 -90   XYZ
    dof rx rz
    limits (-90.0 90.0)
           (-45.0 45.0)
  end
  begin
     id 29
     name rfingers
     direction -1 -4.48987e-011 1.08013e-025   
     length 0.596071   
     axis -6.89214e-014 -90 -90   XYZ
    dof rx
    limits (0.0 90.0)
  end
  begin
     id 30
     name rthumb
     direction -0.707107 -6.34935e-011 0.707107   
     length 0.855843   
     axis -90 -45 -2.85299e-015   XYZ
    dof rx rz
    limits (-45.0 45.0)
           (-45.0 45.0)
  end
:hierarchy
  begin
    root lhipjoint rhipjoint lowerback
    lhipjoint lfemur
    lfemur ltibia
    ltibia lfoot
    lfoot ltoes
    rhipjoint rfemur
    rfemur rtibia
    rtibia rfoot
    rfoot rtoes
    lowerback upperback
    upperback thorax
    thorax lowerneck lclavicle rclavicle
    lowerneck upperneck
    upperneck head
    lclavicle lhumerus
    lhumerus lradius
    lradius lwrist
    lwrist lhand lthumb
    lhand lfingers
    rclavicle rhumerus
    rhumerus rradius
    rradius rwrist
    rwrist rhand rthumb
    rhand rfingers
  end

#!OML:ASF I:\salsa\salsa 7_09\Patient 1\Session 1\dancermale.ASF
:FULLY-SPECIFIED
:DEGREES
1158
root 0.996508 17.6816 -6.43262 405.448 -273.495 395.702
lowerback -7.1174 2.02303 4.78925
upperback -1.48666 2.39237 -0.794841
thorax 2.67862 1.24454 -3.28534
lowerneck -8.37007 -7.15742 -0.519191
upperneck 24.3004 -9.46049 0.228455
head 9.01284 -4.24029 -0.760128
rclavicle 1.71949e-014 8.34896e-015
rhumerus 55.1362 3.74612 2.23331
rradius 70.2637
rwrist -370.223
rhand 20.4224 11.6826
rfingers 7.12502
rthumb 44.9284 -11.8451
lclavicle 1.71949e-014 8.34896e-015
lhumerus -22.4228 -23.8061 64.5805
lradius 113.553
lwrist 46.3175
lhand -8.70145 57.7052
lfingers 7.12502
lthumb 17.2338 -273.039
rfemur -30.184 14.6166 8.80872
rtibia 46.528
rfoot -2.86776 9.05396
rtoes 8.35221
lfemur -18.4509 -10.7568 -8.69118
ltibia 28.2546
lfoot -11.3574 -5.32039
ltoes -10.2485
1159
root 0.960032 17.6506 -6.65117 399.134 -275.398 389.342
lowerback -7.0045 1.86586 4.24102
upperback -1.51423 2.23146 -0.897694
thorax 2.556 1.15717 -3.10373
lowerneck -8.74788 -6.83372 -0.124286
upperneck 24.6729 -8.95756 -0.351147
head 9.15903 -4.02279 -0.989966
rclavicle -3.37934e-015 1.27222e-014
rhumerus 55.6176 6.58819 2.21641
rradius 72.8326
rwrist -367.14
rhand 20.4266 11.7455
rfingers 7.12502
rthumb 44.9323 -11.7806
lclavicle -3.37934e-015 1.27222e-014
lhumerus -22.9097 -24.4278 65.6707
lradius 112.998
lwrist 45.6941
lhand -8.91875 57.5284
lfingers 7.12502
lthumb 17.0247 -273.198
rfemur -32.9567 13.047 8.14039
rtibia 50.2003
rfoot -0.903468 7.59192
rtoes 9.29004
lfemur -17.0651 -9.05307 -10.365
ltibia 26.5331
lfoot -13.0207 -4.45093
ltoes -13.1397
1160
root 0.926136 17.6217 -6.86853 397.47 -277.197 387.696
lowerback -6.801 1.77084 3.74596
upperback -1.55063 2.15557 -1.14646
thorax 2.39037 1.11284 -3.09675
lowerneck -8.98682 -6.49469 0.252261
upperneck 24.9133 -8.50932 -0.580441
head 9.2579 -3.79909 -1.09694
rclavicle 3.8763e-015 -6.36111e-015
rhumerus 55.8036 9.57294 2.30291
rradius 75.2944
rwrist -363.705
rhand 21.471 11.6078
rfingers 7.12502
rthumb 45.9029 -11.527
lclavicle 3.8763e-015 -6.36111e-015
lhumerus -23.2165 -25.1878 66.7958
lradius 112.261
lwrist 44.9464
lhand -9.19921 57.4494
lfingers 7.12502
lthumb 16.7547 -273.254
rfemur -35.1868 11.2562 7.64249
rtibia 53.3247
rfoot 0.470945 5.30933
rtoes 10.0788
lfemur -15.6979 -7.54842 -12.1597
ltibia 24.7678
lfoot -14.4845 -3.63603
ltoes -15.2079
1161
root 0.89516 17.5848 -7.0685 394.112 -278.703 384.453
lowerback -6.73941 1.73098 3.46122
upperback -1.3501 2.11893 -1.16821
thorax 2.55137 1.09692 -2.96087
lowerneck -9.17882 -6.17948 0.377734
upperneck 24.7523 -8.09767 -0.630683
head 9.23088 -3.61131 -1.09636
rclavicle -2.27608e-014 -5.96354e-015
rhumerus 55.8994 12.4878 2.55968
rradius 77.5117
rwrist -359.65
rhand 23.547 12.1864
rfingers 7.12502
rthumb 47.8239 -10.1081
lclavicle -2.27608e-014 -5.96354e-015
lhumerus -23.0894 -25.6734 68.1227
lradius 111.274
lwrist 44.1654
lhand -9.51592 57.239
lfingers 7.12502
lthumb 16.4498 -273.438
rfemur -36.9199 9.77301 7.92125
rtibia 55.8931
rfoot 1.52803 2.37294
rtoes 10.0597
lfemur -14.3301 -6.07324 -13.3376
ltibia 22.9704
lfoot -15.6297 -2.7237
ltoes -16.7152
1162
root 0.865302 17.5435 -7.25628 390.684 -280.097 381.155
lowerback -6.74459 1.54881 3.34959
upperback -1.22856 1.87346 -0.943791
thorax 2.64979 0.974967 -2.68678
lowerneck -8.94487 -5.76428 -0.188294
upperneck 24.5821 -7.41288 -0.631756
head 9.15548 -3.35288 -0.922496
rclavicle 2.63887e-014 -3.10104e-014
rhumerus 56.5565 15.9904 3.10413
rradius 79.5223
rwrist -354.981
rhand 25.5262 12.7654
rfingers 7.12502
rthumb 49.6439 -8.64233
lclavicle 2.63887e-014 -3.10104e-014
lhumerus -23.7042 -25.5741 69.9056
lradius 110.181
lwrist 43.4262
lhand -9.80646 56.8659
lfingers 7.12502
lthumb 16.17 -273.789
rfemur -38.4214 8.59325 8.61321
rtibia 57.9295
rfoot 2.30902 -0.950845
rtoes 10.0468
lfemur -13.132 -4.58024 -14.1598
ltibia 21.318
lfoot -16.4472 -1.88867
ltoes -17.7831
1163
root 0.831571 17.5105 -7.43855 388.524 -281.462 379.132
lowerback -6.45631 1.66877 3.37735
upperback -1.24104 2.04293 -1.04051
thorax 2.49281 1.05687 -2.79434
lowerneck -8.84478 -5.60779 -0.113911
upperneck 24.701 -7.13181 -0.934072
head 9.16267 -3.24531 -1.00657
rclavicle 1.25234e-014 -1.03368e-014
rhumerus 56.2392 19.9936 3.59872
rradius 81.3008
rwrist -349.709
rhand 26.9185 12.394
rfingers 7.12502
rthumb 50.9165 -8.33391
lclavicle 1.25234e-014 -1.03368e-014
lhumerus -24.0441 -26.2404 71.5897
lradius 108.725
lwrist 42.982
lhand -9.95027 56.4728
lfingers 7.12502
lthumb 16.0315 -274.17
rfemur -39.7901 7.52011 9.35667
rtibia 59.6423
rfoot 2.41592 -4.62934
rtoes 10.2783
lfemur -12.2376 -3.10316 -15.0025
ltibia 20.0326
lfoot -17.1036 -1.44179
ltoes -17.1969
1164
root 0.794128 17.4861 -7.61234 386.851 -282.7 377.569
lowerback -6.0835 1.83858 3.40708
upperback -1.26548 2.28251 -1.16925
thorax 2.28377 1.17283 -2.93408
lowerneck -8.79229 -5.48324 0.263611
upperneck 24.7934 -6.88879 -1.49442
head 9.14703 -3.1559 -1.2327
rclavicle 1.98288e-014 -3.57812e-015
rhumerus 55.4986 24.2357 3.55062
rradius 82.3873
rwrist -343.805
rhand 28.1754 11.9933
rfingers 7.12502
rthumb 52.0593 -8.07708
lclavicle 1.98288e-014 -3.57812e-015
lhumerus -24.1858 -26.8532 73.233
lradius 106.903
lwrist 42.5571
lhand -9.48954 56.1222
lfingers 7.12502
lthumb 16.4752 -274.557
rfemur -40.9948 6.4417 10.265
rtibia 61.0315
rfoot 1.78995 -8.40176
rtoes 11.4376
lfemur -11.7084 -1.77089 -15.7386
ltibia 19.2067
lfoot -17.7069 -1.16344
ltoes -15.4465
1165
root 0.758773 17.4672 -7.77722 385.736 -283.836 376.54
lowerback -5.84156 1.96051 3.29129
upperback -1.2295 2.46003 -1.23213
thorax 2.19762 1.25944 -2.9259
lowerneck -8.74281 -5.31308 0.462892
upperneck 24.8076 -6.59753 -1.86134
head 9.12269 -3.04149 -1.35857
rclavicle -1.77415e-014 -9.93923e-015
rhumerus 54.5318 28.5345 2.91217
rradius 82.5365
rwrist -337.95
rhand 29.3347 11.3361
rfingers 7.12502
rthumb 53.1079 -8.08775
lclavicle -1.77415e-014 -9.93923e-015
lhumerus -24.6289 -26.7918 75.2242
lradius 104.893
lwrist 41.8031
lhand -8.67575 55.9877
lfingers 7.12502
lthumb 17.2585 -274.759
rfemur -42.0557 5.17891 11.232
rtibia 62.1324
rfoot 0.63153 -11.4772
rtoes 13.6836
lfemur -11.4501 -0.745935 -16.4919
ltibia 18.8053
lfoot -18.3297 -0.736164
ltoes -14.7076
1166
root 0.725985 17.4531 -7.92905 385.094 -284.885 375.998
lowerback -5.58003 2.0591 3.00087
upperback -1.1956 2.6152 -1.23736
thorax 2.08596 1.33334 -2.76372
lowerneck -8.84425 -5.15412 0.366701
upperneck 24.9751 -6.31857 -2.01201
head 9.20185 -2.93306 -1.37281
rclavicle -2.96686e-014 5.56597e-015
rhumerus 53.317 32.7151 2.00189
rradius 81.8835
rwrist -332.591
rhand 30.0741 10.5373
rfingers 7.12502
rthumb 53.7736 -8.45269
lclavicle -2.96686e-014 5.56597e-015
lhumerus -25.1411 -26.6808 77.2801
lradius 102.767
lwrist 41.1159
lhand -8.94328 56.0239
lfingers 7.12502
lthumb 17.001 -274.7
rfemur -43.0359 3.72974 12.254
rtibia 63.3197
rfoot -0.622932 -13.3403
rtoes 14.3201
lfemur -11.3879 0.0418861 -17.285
ltibia 18.8113
lfoot -19.0686 -0.188745
ltoes -15.0767
1167
root 0.694364 17.443 -8.06361 384.568 -285.731 375.557
lowerback -5.38975 2.13104 2.62021
upperback -1.08502 2.7336 -1.16806
thorax 2.08124 1.39037 -2.47393
lowerneck -8.98592 -4.99504 0.369939
upperneck 24.9351 -6.0289 -2.31259
head 9.20716 -2.83294 -1.44982
rclavicle 3.3048e-014 7.15625e-015
rhumerus 51.4939 36.4173 0.35852
rradius 80.6311
rwrist -327.617
rhand 30.0496 10.9365
rfingers 7.12502
rthumb 53.7516 -8.06814
lclavicle 3.3048e-014 7.15625e-015
lhumerus -25.7302 -26.2979 79.2921
lradius 100.632
lwrist 40.006
lhand -9.57233 56.0896
lfingers 7.12502
lthumb 16.3955 -274.583
rfemur -43.9101 2.23704 13.457
rtibia 64.744
rfoot -1.70009 -13.0251
rtoes 15.9926
lfemur -11.552 0.668709 -17.9344
ltibia 19.135
lfoot -19.8346 0.359727
ltoes -15.7776
1168
root 0.664439 17.4322 -8.18177 384.038 -286.363 375.097
lowerback -5.34161 2.14953 2.27404
upperback -0.897378 2.7737 -1.0842
thorax 2.22981 1.41047 -2.1881
lowerneck -8.95998 -4.79124 0.502436
upperneck 24.5383 -5.68922 -2.70309
head 9.05055 -2.71464 -1.56029
rclavicle 6.21202e-015 5.56597e-015
rhumerus 49.0447 39.5306 -2.18125
rradius 79.0876
rwrist -323.306
rhand 29.6377 11.7654
rfingers 7.12502
rthumb 53.3809 -7.48277
lclavicle 6.21202e-015 5.56597e-015
lhumerus -26.4853 -25.6702 81.1417
lradius 98.6387
lwrist 38.7774
lhand -10.0149 56.1703
lfingers 7.12502
lthumb 15.9693 -274.468
rfemur -44.6248 0.743261 14.8335
rtibia 66.3718
rfoot -2.65396 -12.7399
rtoes 16.6211
lfemur -11.8947 1.23021 -18.4042
ltibia 19.6776
lfoot -20.4628 0.805784
ltoes -17.0385
1169
root 0.63246 17.4157 -8.28892 383.193 -286.944 374.248
lowerback -5.2984 2.14815 2.03865
upperback -0.766362 2.78148 -0.983573
thorax 2.3249 1.41352 -1.95084
lowerneck -8.92097 -4.52955 0.444162
upperneck 24.2212 -5.29513 -2.82969
head 8.9384 -2.55672 -1.54632
rclavicle -2.42517e-014 1.35174e-014
rhumerus 46.4691 42.1504 -5.12871
rradius 77.315
rwrist -319.848
rhand 30.03 12.2599
rfingers 7.12502
rthumb 53.734 -6.75644
lclavicle -2.42517e-014 1.35174e-014
lhumerus -27.4555 -25.1228 82.7024
lradius 96.6522
lwrist 37.8119
lhand -10.3303 55.978
lfingers 7.12502
lthumb 15.6656 -274.636
rfemur -45.252 -0.614023 16.3558
rtibia 68.2569
rfoot -3.42957 -13.1327
rtoes 17.6717
lfemur -12.404 1.87891 -18.6769
ltibia 20.3987
lfoot -20.9492 1.13699
ltoes -18.0409
1170
root 0.598291 17.3949 -8.38812 382.194 -287.502 373.2
lowerback -4.97241 2.13045 1.71476
upperback -0.833439 2.77506 -0.725191
thorax 2.04511 1.40359 -1.51877
lowerneck -8.96864 -4.25187 0.124457
upperneck 24.2206 -4.82589 -2.91882
head 8.9636 -2.37547 -1.47817
rclavicle -1.65488e-014 1.74931e-014
rhumerus 44.1542 44.4988 -7.78717
rradius 75.2933
rwrist -316.783
rhand 30.7262 13.0971
rfingers 7.12502
rthumb 54.3587 -5.49551
lclavicle -1.65488e-014 1.74931e-014
lhumerus -28.8231 -24.5883 84.2779
lradius 94.5301
lwrist 36.6232
lhand -10.6407 55.3225
lfingers 7.12502
lthumb 15.3666 -275.269
rfemur -45.6799 -1.67793 17.7798
rtibia 70.2734
rfoot -3.8881 -13.8282
rtoes 19.0225
lfemur -13.0336 2.55722 -18.8677
ltibia 21.2544
lfoot -21.4031 1.45305
ltoes -18.4916
1171
root 0.565384 17.3754 -8.4865 381.991 -288.062 372.92
lowerback -4.68852 2.11849 1.3465
upperback -0.874793 2.77842 -0.556882
thorax 1.81831 1.40053 -1.15228
lowerneck -9.22836 -4.01619 -0.160816
upperneck 24.3202 -4.37124 -3.20304
head 9.05611 -2.21898 -1.49028
rclavicle -1.18277e-014 1.35174e-014
rhumerus 41.9678 46.4062 -10.1858
rradius 73.2201
rwrist -313.689
rhand 30.9788 13.589
rfingers 7.12502
rthumb 54.5847 -4.8458
lclavicle -1.18277e-014 1.35174e-014
lhumerus -30.0664 -23.9276 85.6275
lradius 92.2093
lwrist 34.9769
lhand -11.2471 54.4431
lfingers 7.12502
lthumb 14.7824 -276.104
rfemur -45.895 -2.47814 18.5912
rtibia 72.2565
rfoot -3.79063 -14.065
rtoes 21.7265
lfemur -13.7527 3.05613 -19.3942
ltibia 22.1431
lfoot -21.8302 1.88421
ltoes -19.2584
